<svg xmlns="http://www.w3.org/2000/svg" viewBox="0 0 1200 1200">
  <g>
    <polygon fill="#5A8EC2" points="650.56,542.88 716.089,542.88 691.5,513.132 638.634,513.132"/>
    <polygon fill="#5A8EC2" points="669.363,589.786 754.859,589.786 725.702,554.511 655.222,554.511"/>
    <polygon fill="#5A8EC2" points="731.395,741.751 731.395,741.753 763.075,823.549 932.714,823.549 948.126,823.549 948.126,746.057 932.714,746.057 932.714,804.907 880.499,741.753 880.507,741.753 880.505,741.751 880.498,741.751"/>
    <polygon fill="#5A8EC2" points="870.892,730.12 329.116,730.12 366.97,684.339 387.136,659.953 812.872,659.953 833.037,684.339"/>
    <polygon fill="#5A8EC2" points="812.853,589.786 812.853,648.319 387.154,648.319 387.154,589.786 402.567,589.786 402.567,641.292 435.541,601.419 764.448,601.419 797.44,641.292 797.44,589.786"/>
    <polygon fill="#5A8EC2" points="544.777,554.511 474.297,554.511 445.14,589.786 530.636,589.786"/>
    <polygon fill="#5A8EC2" points="561.364,513.132 508.499,513.132 483.91,542.88 549.439,542.88"/>
    <polygon fill="#5A8EC2" points="319.501,741.751 319.493,741.751 319.492,741.753 319.499,741.753 267.285,804.907 267.285,746.057 251.872,746.057 251.872,823.549 267.285,823.549 436.923,823.549 468.603,741.753 468.604,741.751"/>
    <path fill="#DEB05E" d="M267.379,726.669c0.001-18.771,1.58-37.168,4.566-55.087c0.65-3.898,1.346-7.78,2.129-11.63c13.249-65.087,45.499-123.244,90.727-168.482c60.217-60.205,143.323-97.419,235.198-97.423h0.001c91.876,0.004,174.981,37.218,235.199,97.423c45.228,45.238,77.478,103.395,90.727,168.482c0.784,3.85,1.48,7.732,2.13,11.63c2.986,17.919,4.565,36.315,4.566,55.087v3.452h15.596v-3.452c0.001-18.745-1.5-37.14-4.354-55.087c-0.62-3.899-1.31-7.775-2.059-11.63c-13.471-69.398-47.529-131.471-95.577-179.51c-62.99-63.003-150.093-101.995-246.227-101.991h-0.001c-169.496,0.004-310.675,121.105-341.804,281.501c-0.748,3.855-1.439,7.731-2.059,11.63c-2.853,17.945-4.354,36.339-4.354,55.087v3.452h15.596V726.669z"/>
  </g>
</svg>
